# units: metres
mtllib rainforest-hall-white-v1.mtl

o sand_floor
usemtl Sand
v -7.400000 0.000000 -0.080000
v 7.400000 0.000000 -0.080000
v 7.400000 25.000000 -0.080000
v -7.400000 25.000000 -0.080000
v -7.400000 0.000000 0.000000
v 7.400000 0.000000 0.000000
v 7.400000 25.000000 0.000000
v -7.400000 25.000000 0.000000
f 1 4 3 2
f 5 6 7 8
f 1 2 6 5
f 2 3 7 6
f 3 4 8 7
f 4 1 5 8

o left_lower_operable_placeholder
usemtl Screen
v -7.500000 0.000000 0.000000
v -7.400000 0.000000 0.000000
v -7.400000 25.000000 0.000000
v -7.500000 25.000000 0.000000
v -7.500000 0.000000 2.000000
v -7.400000 0.000000 2.000000
v -7.400000 25.000000 2.000000
v -7.500000 25.000000 2.000000
f 9 12 11 10
f 13 14 15 16
f 9 10 14 13
f 10 11 15 14
f 11 12 16 15
f 12 9 13 16

o left_upper_screen
usemtl White_Model
v -7.500000 0.000000 2.000000
v -7.400000 0.000000 2.000000
v -7.400000 25.000000 2.000000
v -7.500000 25.000000 2.000000
v -7.500000 0.000000 4.000000
v -7.400000 0.000000 4.000000
v -7.400000 25.000000 4.000000
v -7.500000 25.000000 4.000000
f 17 20 19 18
f 21 22 23 24
f 17 18 22 21
f 18 19 23 22
f 19 20 24 23
f 20 17 21 24

o right_wall_front
usemtl White_Model
v 7.400000 0.000000 0.000000
v 7.500000 0.000000 0.000000
v 7.500000 11.300000 0.000000
v 7.400000 11.300000 0.000000
v 7.400000 0.000000 4.000000
v 7.500000 0.000000 4.000000
v 7.500000 11.300000 4.000000
v 7.400000 11.300000 4.000000
f 25 28 27 26
f 29 30 31 32
f 25 26 30 29
f 26 27 31 30
f 27 28 32 31
f 28 25 29 32

o right_wall_back
usemtl White_Model
v 7.400000 13.700000 0.000000
v 7.500000 13.700000 0.000000
v 7.500000 25.000000 0.000000
v 7.400000 25.000000 0.000000
v 7.400000 13.700000 4.000000
v 7.500000 13.700000 4.000000
v 7.500000 25.000000 4.000000
v 7.400000 25.000000 4.000000
f 33 36 35 34
f 37 38 39 40
f 33 34 38 37
f 34 35 39 38
f 35 36 40 39
f 36 33 37 40

o entrance_frame_left
usemtl Structure
v -2.500000 -0.100000 0.000000
v -2.400000 -0.100000 0.000000
v -2.400000 0.000000 0.000000
v -2.500000 0.000000 0.000000
v -2.500000 -0.100000 2.400000
v -2.400000 -0.100000 2.400000
v -2.400000 0.000000 2.400000
v -2.500000 0.000000 2.400000
f 41 44 43 42
f 45 46 47 48
f 41 42 46 45
f 42 43 47 46
f 43 44 48 47
f 44 41 45 48

o entrance_frame_right
usemtl Structure
v 2.400000 -0.100000 0.000000
v 2.500000 -0.100000 0.000000
v 2.500000 0.000000 0.000000
v 2.400000 0.000000 0.000000
v 2.400000 -0.100000 2.400000
v 2.500000 -0.100000 2.400000
v 2.500000 0.000000 2.400000
v 2.400000 0.000000 2.400000
f 49 52 51 50
f 53 54 55 56
f 49 50 54 53
f 50 51 55 54
f 51 52 56 55
f 52 49 53 56

o entrance_frame_header
usemtl Structure
v -2.500000 -0.100000 2.400000
v 2.500000 -0.100000 2.400000
v 2.500000 0.000000 2.400000
v -2.500000 0.000000 2.400000
v -2.500000 -0.100000 2.500000
v 2.500000 -0.100000 2.500000
v 2.500000 0.000000 2.500000
v -2.500000 0.000000 2.500000
f 57 60 59 58
f 61 62 63 64
f 57 58 62 61
f 58 59 63 62
f 59 60 64 63
f 60 57 61 64

o double_door_reference
usemtl Glass_Reference
v -1.100000 0.000000 0.000000
v 1.100000 0.000000 0.000000
v 1.100000 0.020000 0.000000
v -1.100000 0.020000 0.000000
v -1.100000 0.000000 2.400000
v 1.100000 0.000000 2.400000
v 1.100000 0.020000 2.400000
v -1.100000 0.020000 2.400000
f 65 68 67 66
f 69 70 71 72
f 65 66 70 69
f 66 67 71 70
f 67 68 72 71
f 68 65 69 72

o roof_left
usemtl Roof_Reference
v -7.400000 0.000000 4.000000
v 0.000000 0.000000 5.500000
v 0.000000 25.000000 5.500000
v -7.400000 25.000000 4.000000
f 73 74 75 76

o roof_right
usemtl Roof_Reference
v 0.000000 0.000000 5.500000
v 7.400000 0.000000 4.000000
v 7.400000 25.000000 4.000000
v 0.000000 25.000000 5.500000
f 77 78 79 80

o ridge
usemtl Structure
v -0.025000 0.000000 5.450000
v 0.025000 0.000000 5.450000
v 0.025000 25.000000 5.450000
v -0.025000 25.000000 5.450000
v -0.025000 0.000000 5.500000
v 0.025000 0.000000 5.500000
v 0.025000 25.000000 5.500000
v -0.025000 25.000000 5.500000
f 81 84 83 82
f 85 86 87 88
f 81 82 86 85
f 82 83 87 86
f 83 84 88 87
f 84 81 85 88
